General
Complete name                    : CRAZY FROG DVD PACK BY ~~loveislifeforlovers@gmail.com~~ NIKHILVTS_01_1.VOB

Format                           : MPEG-PS
File size                        : 778 MiB
Duration                         : 23mn 52s
Overall bit rate                 : 4 556 Kbps

Video
ID                               : 224 (0xE0)
Format                           : MPEG Video
Format version                   : Version 2
Format profile                   : Main@Main
Format settings, BVOP            : Yes
Format settings, Matrix          : Default
Duration                         : 23mn 52s
Bit rate mode                    : Variable
Bit rate                         : 3 927 Kbps
Nominal bit rate                 : 9 383 Kbps
Width                            : 720 pixels
Height                           : 576 pixels
Display aspect ratio             : 4:3
Frame rate                       : 25.000 fps
Standard                         : PAL
Resolution                       : 8 bits
Colorimetry                      : 4:2:0
Scan type                        : Progressive
Scan order                       : Top Field First
Bits/(Pixel*Frame)               : 0.379
Stream size                      : 671 MiB (86%)

Audio
ID                               : 128 (0x80)
Format                           : AC-3
Format/Info                      : Audio Coding 3
Duration                         : 23mn 52s
Bit rate mode                    : Constant
Bit rate                         : 448 Kbps
Channel(s)                       : 6 channels
Channel positions                : Front: L C R, Surround: L R, LFE
Sampling rate                    : 48.0 KHz
Stream size                      : 76.5 MiB (10%)

Menu

General
Complete name                    : CRAZY FROG DVD PACK BY ~~loveislifeforlovers@gmail.com~~ NIKHILVTS_02_1.VOB

Format                           : MPEG-PS
File size                        : 1 024 MiB
Duration                         : 45mn 17s
Overall bit rate                 : 3 161 Kbps

Video
ID                               : 224 (0xE0)
Bit rate                         : 2 011 Kbps

Audio
ID                               : 160 (0xA0)
Format                           : PCM
Format settings, Endianness      : Big
Format settings, Sign            : Signed
Muxing mode                      : DVD-Video
Duration                         : 45mn 17s
Bit rate mode                    : Constant
Bit rate                         : 1 024 Kbps
Channel(s)                       : 2 channels
Channel positions                : Front: L R
Sampling rate                    : 32.0 KHz
Resolution                       : 16 bits
Stream size                      : 332 MiB (32%)

Menu

General
Complete name                    : CRAZY FROG DVD PACK BY ~~loveislifeforlovers@gmail.com~~ NIKHILVTS_02_2.VOB

Format                           : MPEG-PS
File size                        : 350 MiB
Duration                         : 47mn 45s
Overall bit rate                 : 1 024 Kbps

Audio
ID                               : 160 (0xA0)
Format                           : PCM
Format settings, Endianness      : Big
Format settings, Sign            : Signed
Muxing mode                      : DVD-Video
Duration                         : 47mn 45s
Bit rate mode                    : Constant
Bit rate                         : 1 024 Kbps
Channel(s)                       : 2 channels
Channel positions                : Front: L R
Sampling rate                    : 32.0 KHz
Resolution                       : 16 bits
Stream size                      : 350 MiB (100%)


screen :
[IMG]http://i894.photobucket.com/albums/ac145/nikhilsweet/vlcsnap-2010-05-08-11h53m16s241.png[/IMG]
[IMG]http://i894.photobucket.com/albums/ac145/nikhilsweet/vlcsnap-2010-05-08-11h54m58s199.png[/IMG]
[IMG]http://i894.photobucket.com/albums/ac145/nikhilsweet/vlcsnap-2010-05-08-11h53m01s85.png[/IMG]
[IMG]http://i894.photobucket.com/albums/ac145/nikhilsweet/vlcsnap-2010-05-08-11h52m04s89.png[/IMG]
[IMG]http://i894.photobucket.com/albums/ac145/nikhilsweet/vlcsnap-2010-05-08-11h51m41s84.png[/IMG]



[IMG]http://i894.photobucket.com/albums/ac145/nikhilsweet/vlcsnap-2010-05-08-11h50m53s111.png[/IMG]
[IMG]http://i894.photobucket.com/albums/ac145/nikhilsweet/vlcsnap-2010-05-08-11h51m20s120.png[/IMG]
[IMG]http://i894.photobucket.com/albums/ac145/nikhilsweet/vlcsnap-2010-05-08-11h51m07s235.png[/IMG]
[IMG]http://i894.photobucket.com/albums/ac145/nikhilsweet/vlcsnap-2010-05-08-11h49m54s34.png[/IMG]
[IMG]http://i894.photobucket.com/albums/ac145/nikhilsweet/vlcsnap-2010-05-08-11h49m44s190.png[/IMG]
[IMG]http://i894.photobucket.com/albums/ac145/nikhilsweet/vlcsnap-2010-05-08-11h37m35s14.png[/IMG]
[IMG]http://i894.photobucket.com/albums/ac145/nikhilsweet/19.png[/IMG]
[IMG]http://i894.photobucket.com/albums/ac145/nikhilsweet/18.png[/IMG]
[IMG]http://i894.photobucket.com/albums/ac145/nikhilsweet/16.png[/IMG]
[IMG]http://i894.photobucket.com/albums/ac145/nikhilsweet/15.png[/IMG]
[IMG]http://i894.photobucket.com/albums/ac145/nikhilsweet/12.png[/IMG]
[IMG]http://i894.photobucket.com/albums/ac145/nikhilsweet/11.png[/IMG]
[IMG]http://i894.photobucket.com/albums/ac145/nikhilsweet/10.png[/IMG]
[IMG]http://i894.photobucket.com/albums/ac145/nikhilsweet/08.png[/IMG]
[IMG]http://i894.photobucket.com/albums/ac145/nikhilsweet/07.png[/IMG]
[IMG]http://i894.photobucket.com/albums/ac145/nikhilsweet/05-1.png[/IMG]
[IMG]http://i894.photobucket.com/albums/ac145/nikhilsweet/03-1.png[/IMG]
[IMG]http://i894.photobucket.com/albums/ac145/nikhilsweet/04-1.png[/IMG]

RIPPED PURELY BY-- NIKHIL